# xmcd
#
# Track frame offsets:
# 150
# 20311
# 34486
# 56291
# 78871
# 99039
# 119127
# 133885
# 150970
# 167575
# 183165
# 200485
# 217122
# 234867
# 252400
# 268975
# 283540
# 300615
# 319312
#
# Disc length: 4420 seconds
#
#
# Revision: 0
# Processed by: cddbd v1.5.1PL2 Copyright (c) Steve Scherf et al.
# Submitted via: FreeRIP 2.91 
#
DISCID=06114213
DTITLE=alceu valença - Alceu valença
DYEAR=2006
DGENRE=Instrumental
TTITLE0=la belle jour
TTITLE1=anuciação
TTITLE2=morena tropicana
TTITLE3=como dois animais
TTITLE4=rouge e carmim
TTITLE5=coração bobo
TTITLE6=pelas ruas que andei
TTITLE7=dia branco
TTITLE8=rima com rima
TTITLE9=no romper da aurora
TTITLE10=amor covarde
TTITLE11=girassol
TTITLE12=romance da bela ines
TTITLE13=solidão
TTITLE14=marim dos caetés
TTITLE15=te amo brasilia
TTITLE16=sete desejos
TTITLE17=cavalo de pau
TTITLE18=tomara
EXTD=
EXTT0=
EXTT1=
EXTT2=
EXTT3=
EXTT4=
EXTT5=
EXTT6=
EXTT7=
EXTT8=
EXTT9=
EXTT10=
EXTT11=
EXTT12=
EXTT13=
EXTT14=
EXTT15=
EXTT16=
EXTT17=
EXTT18=
PLAYORDER=
